<svg xmlns="http://www.w3.org/2000/svg" viewBox="0 0 54.99 55"><defs><style>.cls-1{fill:#868891;}</style></defs><g id="Layer_2" data-name="Layer 2"><g id="Layer_1-2" data-name="Layer 1"><path class="cls-1" d="M45.47,7.53c.12-3.56,0-7.4,0-7.53H9.42c0,.13-.1,4,0,7.53H0c0,9,1.31,13.53,2.78,16.75s3.49,6,7.75,9.29c4,3.08,12.63,7.09,13.79,7.62v3.74c-.61,1.32-3.11,3.73-11,3.73H10.57V55H44.41V48.66H41c-8,0-9.92-2.53-10.35-3.73V41.19c1.22-.61,10.69-5.33,13.8-7.6a27.28,27.28,0,0,0,7.75-9.3A46.65,46.65,0,0,0,55,7.53ZM8.14,21.66a21.73,21.73,0,0,1-2.07-8.18H9.86c.09.8.19,1.5.3,2.16a58.88,58.88,0,0,0,3.4,12.75A18.84,18.84,0,0,1,8.14,21.66Zm38.7,0a19,19,0,0,1-5.49,6.79,58.14,58.14,0,0,0,3.41-12.81c.1-.66.21-1.36.3-2.16h3.87a21.74,21.74,0,0,1-2.09,8.18Z"/></g></g></svg>